<svg id="Capa_1" enable-background="new 0 0 512 512" height="100" viewBox="0 0 512 512" width="512" xmlns="http://www.w3.org/2000/svg"><g><g><path d="m499.5 241.236c6.893 0 12.5-5.607 12.5-12.5v-72.18c0-6.893-5.607-12.5-12.5-12.5h-27.686v-13.222h10.447c4.142 0 7.5-3.358 7.5-7.5s-3.358-7.5-7.5-7.5h-7.035c4.925-6.428 7.861-14.456 7.861-23.161 0-21.042-17.119-38.162-38.161-38.162s-38.161 17.119-38.161 38.162c0 8.705 2.936 16.733 7.861 23.161h-7.035c-4.142 0-7.5 3.358-7.5 7.5s3.358 7.5 7.5 7.5h10.447v13.222h-324.076v-13.222h10.447c4.142 0 7.5-3.358 7.5-7.5s-3.358-7.5-7.5-7.5h-7.035c4.925-6.428 7.861-14.456 7.861-23.161 0-21.042-17.119-38.162-38.161-38.162s-38.161 17.12-38.161 38.162c0 8.705 2.936 16.733 7.861 23.161h-7.035c-4.142 0-7.5 3.358-7.5 7.5s3.358 7.5 7.5 7.5h10.447v13.222h-27.686c-6.893 0-12.5 5.607-12.5 12.5v72.18c0 6.893 5.607 12.5 12.5 12.5h27.686v17.851h-27.686c-6.893 0-12.5 5.607-12.5 12.5v72.18c0 6.893 5.607 12.5 12.5 12.5h27.686v88.721c0 6.893 5.607 12.5 12.5 12.5h28.776c6.893 0 12.5-5.607 12.5-12.5v-28.99c0-4.142-3.358-7.5-7.5-7.5s-7.5 3.358-7.5 7.5v26.49h-23.776v-86.221h23.776v25.73c0 4.142 3.358 7.5 7.5 7.5s7.5-3.358 7.5-7.5v-25.73h324.075v88.721c0 6.893 5.607 12.5 12.5 12.5h28.776c6.893 0 12.5-5.607 12.5-12.5v-88.721h27.687c6.893 0 12.5-5.607 12.5-12.5v-72.18c0-6.893-5.607-12.5-12.5-12.5h-27.686v-17.851zm-50.194-15-67.18-67.18h70.767l44.024 44.025c.027.027.056.049.083.075v23.08zm-97.973 32.851c-4.142 0-7.5 3.358-7.5 7.5s3.358 7.5 7.5 7.5h9.579l67.18 67.18h-75.187l-67.18-67.18h31.607c4.142 0 7.5-3.358 7.5-7.5s-3.358-7.5-7.5-7.5h-223.37v-17.851h77.371c4.142 0 7.5-3.358 7.5-7.5s-3.358-7.5-7.5-7.5h-18.817l-67.188-67.18h75.185l67.189 67.18h-22.368c-4.142 0-7.5 3.358-7.5 7.5s3.358 7.5 7.5 7.5h212.704v17.851zm-102.417 82.181-67.189-67.18h82.786l67.18 67.18zm-96.4 0-67.188-67.18h75.185l67.189 67.18zm111.997-182.212 67.18 67.18h-82.777l-67.189-67.18zm88.393 67.18-67.18-67.18h75.187l67.18 67.18zm144.094-44.285-22.895-22.895h22.895zm-75.235-89.278c0-12.771 10.39-23.162 23.161-23.162s23.161 10.39 23.161 23.162c0 12.771-10.39 23.161-23.161 23.161s-23.161-10.39-23.161-23.161zm11.273 38.161h23.776v13.222h-23.776zm-389.125-38.161c0-12.771 10.39-23.162 23.161-23.162s23.161 10.39 23.161 23.162c0 12.771-10.39 23.161-23.161 23.161s-23.161-10.39-23.161-23.161zm11.273 38.161h23.776v13.222h-23.776zm8.926 28.222 67.188 67.18h-74.528l-41.772-41.772v-25.408zm-49.112 46.621 20.56 20.56h-20.56zm40.186 35.559h23.776v17.851h-23.776zm8.926 32.851 67.188 67.18h-74.528l-41.772-41.772v-25.408zm-49.112 46.621 20.56 20.56h-20.56zm441.814 121.78h-23.776v-86.221h23.776zm-7.508-101.22-67.18-67.18h70.767l44.024 44.025c.027.027.056.049.083.075v23.08zm47.694-44.286-22.895-22.895h22.895zm-40.186-37.895h-23.776v-17.851h23.776z"/></g></g></svg>